<mxfile host="app.diagrams.net" modified="2021-09-03T10:12:17.694Z" agent="5.0 (Windows NT 10.0; Win64; x64) AppleWebKit/537.36 (KHTML, like Gecko) Chrome/92.0.4515.159 Safari/537.36 Edg/92.0.902.84" etag="qK_vIMrUKUUQ7EC9V5Fy" version="15.0.6" type="github">
  <diagram id="v6hjb8jbywQ8tvD9h56w" name="第 1 页">
    <mxGraphModel dx="1422" dy="794" grid="1" gridSize="10" guides="1" tooltips="1" connect="1" arrows="1" fold="1" page="1" pageScale="1" pageWidth="827" pageHeight="1169" math="0" shadow="0">
      <root>
        <mxCell id="0" />
        <mxCell id="1" parent="0" />
        <mxCell id="gEQz_BnVj_psmA9T3n9M-2" value="" style="verticalLabelPosition=bottom;html=1;verticalAlign=top;align=center;strokeColor=#6c8ebf;fillColor=#dae8fc;shape=mxgraph.azure.mobile_services;pointerEvents=1;" vertex="1" parent="1">
          <mxGeometry x="543.75" y="190.84" width="52.5" height="80.77" as="geometry" />
        </mxCell>
        <mxCell id="gEQz_BnVj_psmA9T3n9M-7" value="" style="aspect=fixed;html=1;points=[];align=center;image;fontSize=12;image=img/lib/mscae/API_Management.svg;" vertex="1" parent="1">
          <mxGeometry x="770" y="202.4" width="90" height="75.6" as="geometry" />
        </mxCell>
        <mxCell id="gEQz_BnVj_psmA9T3n9M-8" value="PC端" style="text;html=1;strokeColor=none;fillColor=none;align=center;verticalAlign=middle;whiteSpace=wrap;rounded=0;fontSize=16;fontColor=#1BA1E2;" vertex="1" parent="1">
          <mxGeometry x="283.29999999999995" y="277.81" width="63.8" height="20" as="geometry" />
        </mxCell>
        <mxCell id="gEQz_BnVj_psmA9T3n9M-9" value="小程序" style="text;html=1;strokeColor=none;fillColor=none;align=center;verticalAlign=middle;whiteSpace=wrap;rounded=0;fontSize=16;fontColor=#1BA1E2;" vertex="1" parent="1">
          <mxGeometry x="538.5" y="277.81" width="63" height="20" as="geometry" />
        </mxCell>
        <mxCell id="gEQz_BnVj_psmA9T3n9M-10" value="接口" style="text;html=1;strokeColor=none;fillColor=none;align=center;verticalAlign=middle;whiteSpace=wrap;rounded=0;fontSize=16;fontColor=#1BA1E2;" vertex="1" parent="1">
          <mxGeometry x="800" y="284.4" width="40" height="20" as="geometry" />
        </mxCell>
        <mxCell id="gEQz_BnVj_psmA9T3n9M-13" value="" style="rounded=0;whiteSpace=wrap;html=1;strokeColor=#6c8ebf;fillColor=#FFFFFF;" vertex="1" parent="1">
          <mxGeometry x="100" y="330" width="940" height="350" as="geometry" />
        </mxCell>
        <mxCell id="gEQz_BnVj_psmA9T3n9M-17" value="&amp;nbsp; &amp;nbsp; &amp;nbsp; &amp;nbsp; &amp;nbsp;系统类管理功能" style="rounded=1;whiteSpace=wrap;html=1;fontSize=16;strokeColor=#006EAF;fontColor=#ffffff;fillColor=#1ba1e2;" vertex="1" parent="1">
          <mxGeometry x="212.5" y="356" width="250" height="50" as="geometry" />
        </mxCell>
        <mxCell id="gEQz_BnVj_psmA9T3n9M-18" value="&amp;nbsp; &amp;nbsp; &amp;nbsp; &amp;nbsp; &amp;nbsp; &amp;nbsp; 业务类管理功能" style="rounded=1;whiteSpace=wrap;html=1;fontSize=16;strokeColor=#006EAF;fontColor=#ffffff;fillColor=#1ba1e2;" vertex="1" parent="1">
          <mxGeometry x="670" y="356" width="250" height="50" as="geometry" />
        </mxCell>
        <mxCell id="gEQz_BnVj_psmA9T3n9M-52" value="" style="points=[];aspect=fixed;html=1;align=center;shadow=0;dashed=0;image;image=img/lib/allied_telesis/computer_and_terminals/Personal_Computer.svg;fontSize=14;fontColor=#1BA1E2;strokeColor=#006EAF;fillColor=none;" vertex="1" parent="1">
          <mxGeometry x="280" y="182.4" width="70.4" height="95.41" as="geometry" />
        </mxCell>
        <mxCell id="gEQz_BnVj_psmA9T3n9M-58" value="" style="points=[[0.35,0,0],[0.98,0.51,0],[1,0.71,0],[0.67,1,0],[0,0.795,0],[0,0.65,0]];verticalLabelPosition=bottom;html=1;verticalAlign=top;aspect=fixed;align=center;pointerEvents=1;shape=mxgraph.cisco19.user;fillColor=#1ba1e2;strokeColor=#006EAF;fontSize=14;fontColor=#ffffff;" vertex="1" parent="1">
          <mxGeometry x="1230" y="38.39999999999998" width="85" height="85" as="geometry" />
        </mxCell>
        <mxCell id="gEQz_BnVj_psmA9T3n9M-61" value="" style="shape=image;html=1;verticalAlign=top;verticalLabelPosition=bottom;labelBackgroundColor=#ffffff;imageAspect=0;aspect=fixed;image=https://cdn2.iconfinder.com/data/icons/social-media-2199/64/social_media_isometric_9-wechat-128.png;fontSize=14;fontColor=#1BA1E2;strokeColor=#006EAF;fillColor=none;" vertex="1" parent="1">
          <mxGeometry x="1320" y="114.39999999999998" width="88" height="88" as="geometry" />
        </mxCell>
        <mxCell id="gEQz_BnVj_psmA9T3n9M-62" value="" style="html=1;aspect=fixed;strokeColor=#006EAF;shadow=0;align=center;verticalAlign=top;fillColor=#1ba1e2;shape=mxgraph.gcp2.vpn;fontSize=14;fontColor=#ffffff;" vertex="1" parent="1">
          <mxGeometry x="1131" y="190.84" width="110" height="55" as="geometry" />
        </mxCell>
        <mxCell id="gEQz_BnVj_psmA9T3n9M-63" value="" style="shape=mxgraph.cisco.misc.vpn_concentrator;html=1;pointerEvents=1;dashed=0;fillColor=#1ba1e2;strokeColor=#006EAF;strokeWidth=2;verticalLabelPosition=bottom;verticalAlign=top;align=center;outlineConnect=0;fontSize=14;fontColor=#ffffff;" vertex="1" parent="1">
          <mxGeometry x="1620" y="123.4" width="64" height="59" as="geometry" />
        </mxCell>
        <mxCell id="gEQz_BnVj_psmA9T3n9M-66" value="" style="shape=image;verticalLabelPosition=bottom;labelBackgroundColor=#ffffff;verticalAlign=top;aspect=fixed;imageAspect=0;image=data:image/png,iVBORw0KGgoAAAANSUhEUgAAAGAAAABgCAYAAADimHc4AAAJCElEQVR4Ae2diVMURxTG/RMTETSYVJBjEaNAyjMKMUbF5VpukEsUBCWAQDAciorigQcqiAYFBBQ8UEEF8UB4qa+X2YzUrkJPT/cAM1VTM7vs9Ov5ft2ve173NCvI3pQqsEKpdds42QAUFwIbgA1AsQKKzds1wAagWAHF5u0aYANQrIBi83YNsAEoVkCxebsG2AAUK6DY/JKqAUNPXtLNzj7q7hmi/kfPafT1OH34+EmxxF83v6QAHK1sodXr08gv2En+ofG0doOLNv6WS3tT/qJDx5qpte0uPRsZo5mZma+rIvGvSwpAScU5WhORQSuDnbQyOJ7tfqGJ5O9wUUB4KvmFJNCa8CSKjS+j2sarhBqjerM8ALiQl6Nvqat7kM5f6aKmlltMvPLaVqqou0SvxsY9Gmo14LugOPK2f7/uAIPiH5ZMAeEptNqRSInZ1dR5b8CThuwTywH4+GmK7vcN099N1ygpu5oituVQYEQyQTyUYE08lHSU7Hv3H3k0+xaAuVBQSwACNWZfagXd1aXlSdTkE8sA6Hn4hEqrzlPkrjxaFRI/6zZSCC7E7U6cDAJAQEiIBl/f3TvkkWihADQgSAsg/EKclH/0FI3qapUncZNOlAJAY3jtVg/tSS4n/7AE5qdXhSYxcTVxfB1FAtBsADQa8U27Cqjjbr9Jkn+ZrDIA12/3UGx8KSvhcCUQVBNiPkczAGh2mZtzJNGJ+itfqmXCJ+kA0PNwHax1+3OHi7kV7cYXcjQTAPLB2huHi3VfTdDdk6RUAM0XOmhddIan4VuI4HN/azYA2IMNtA3ZhxtMe3aQAmDi3XvKPlxP8O9oVOeKyfNZBoD/IaRSYdlpT6kVeWI6gJGXr2nHvmLWuEE0HrG9XSMLgAYB7UJtQ5tI7VlapgIYHBqhyJgC1rvxJqKR72QCQD5ZmxCaKPyhzTQAj4ZfUNiWLNafNyK0r2tlA0A+UAt+2ZFLb8cnhdUEUwC8ePWGBcHQgPkS0Oj3KgAgz4gpoT0TtQkH8G7yA23fe8QUt6OHpgoA7PqHJrBwiQgIwgGkF9SxBlcvlhnnqgC4a0EK7U4oFdI1FQrgVMst5ichjhmi69NUCQC2EbYQEa4QBuDJ81EWtRTVz9eL7e1cJQDkB+2bM6PKsBcSBiA+s8p0v68HoRoAagBG3QYfjxiCIATA1ZsPZsPG5rseDYJqAO5akErlNa1qAUxPz9DWPUWm9fc1wecerQAAzwW49+npaW4IhmtAW/t9FuPRBkrmCmXWZysA0PLwcPCZOgCI6SOeb5bQvtLVbl7EiJgvG/P5Hvdef6ZdDQAMI0II7PPJrMjfWAUAekMZhf+oAVBccY51x0QKO9+0rAIAIfaomDyamvrMBYG7DcDshQ3bc4TF9+crvPY7qwBAlDRwfRKNvZmQCwDT/yCGCvej2RU1K0KDynNkBSHESb39T+UCqG5oU+Z+rARAm+x15Ua3XAAH0ittAEFxbFIBngcwY49n42oDPk19pvVbs9koEU+1FXGNtzagpBJzQ9M9E7hQOs3ekQ90ReuarvHoz/emPAZcMMkV8RARYvKk4Q1A0fFmWrvpIIvIolTK2tduzKFj1RfkAcBkVgiAnUc8Edd4A/Cgb5hOnrpOjWdvSt1hU2oj3HLpDut+yg4/6MFpAPAwuJg3rjag4Ww7q95WAIBp62iT8Fwic8e0ed6HL32B4QJQM9sFVQmANa5B+yl8SxZFxeRT5M48qTsm8GKKpZFIKEBwASivvShl3Ffvcnyd40kUo3Cyd8yiNhKC0GoBF4Cqk5eljn75El/l94gB7YwrMTwwzwWgvvkG6/uqdEEqxYdt9P3/dJVrBZn7yAXgTGuHkkEY1aLr7QNAQuYJbuG1C7kAtHf2KX8O0Iuh4hwz5HJLmjQduY9cAPCSBWYEqHwSViG63iYGYtAbNLpxAZic/EAhv2YojQXpxZB9jrYPhY83AqqHxgUACfyeUMYexmTfvBXs4SncP8RJjwW86M0NAK+Ewg9aQRDZeUAXNDomnzAlx+jGDaC9o5dVw+XYFUXBO3ik0aj27HpuAHhJ4edNeLk5YVnVAhQ41AAs/CFi4wYA4xkFdUpHxWS7HthDgQuOShP2lowhAFibBxlaTm4I7ifncIOIws/SMAQAYeBNO/OWTW+IjUGEOKnr30FrAEAuEBcy810wFW7Gl02EH2LjjwoTHwkZqgFIAO+EOTZnsobJV8aXwvdwswh5Y40LkZthAMjMydPXWS1Yym0BajkmIote7kwIAAwFbvnjkJJZ0jJqF8IOAY5EwqC/6E0IAGQKDdOq2cWVZIgi0wZGvwpLF8FaEViZcKmFJ9DwRsUU0PjEe9GFn6UnrAYgNbiiHfuLl0yvCI3uDxHJ9MDEqS9CAQDC8NNXtC4qfdE/G7CIZ1gyYQqOmZtwAMgsZs5h0VSUIJm+WpQtJr7DRViH1OzNFADINAYrVocnL7rnA4gvMtr5LYCmAYDhi1fvUWBEyqKBgO4mGt3c4kbDE66+Jbz2d1MBwMjtrocUHJ1p+YYZ7hJh5rITfLOcNUEXejQdADLUN/CUtrElbNyr1Iry1aLSQan/aWMqYbER2ZsUALgpLNyXc6SBlTLM2xclnpF0EEqHv0fhUDXLWhoArWRdvtFN0bGFzCWpGk1zN7QpFBjhYi4HszxUbdIB4EbHJybZjQdFprESCP8rI5DHYjqza0THpVVS7wDfm40iYSkBoN0A/pkCZldgjhH8MHaUTiNuZe61SA+NK1wNFufGsjp3BA6oaPfCe1QKQMs0VivHa0V7ksrZjDuAQPgXLgoCzrd24Hf4PetOsv8RkMrOI3flM9Cq/Lx2n96OlgCgz9jA4xH2vwNcubUUtjmLAsIAwb3OP6KSAINdqzHuz6keV7Yy+AD9uMFFuxPK2HL4t7v6WYxKb8NK55YDoBdn8v1HAhAsiYMXw4uOn6GsonpKzqmhuLQKNjsZMzOw5v/xmlY6e7GT/QOfsdd8ywbobcs6tzQAWSKotGMDUKm+iEF5xflf9ObtGqAYoQ3ABqBYAcXm7RpgA1CsgGLzdg2wAShWQLF5uwbYABQroNi8XQMUA/gPGrh4Xjh1p2UAAAAASUVORK5CYII=;" vertex="1" parent="1">
          <mxGeometry x="1170" y="234" width="96" height="96" as="geometry" />
        </mxCell>
        <mxCell id="gEQz_BnVj_psmA9T3n9M-69" value="" style="outlineConnect=0;fontColor=#ffffff;fillColor=#1ba1e2;strokeColor=#006EAF;dashed=0;verticalLabelPosition=bottom;verticalAlign=top;align=center;html=1;fontSize=12;fontStyle=0;aspect=fixed;pointerEvents=1;shape=mxgraph.aws4.data_set;" vertex="1" parent="1">
          <mxGeometry x="1654" y="293.5" width="63" height="78" as="geometry" />
        </mxCell>
        <mxCell id="gEQz_BnVj_psmA9T3n9M-70" value="" style="outlineConnect=0;fontColor=#ffffff;fillColor=#1ba1e2;strokeColor=#006EAF;dashed=0;verticalLabelPosition=bottom;verticalAlign=top;align=center;html=1;fontSize=12;fontStyle=0;aspect=fixed;pointerEvents=1;shape=mxgraph.aws4.iot_analytics_data_store;" vertex="1" parent="1">
          <mxGeometry x="1320" y="282" width="54" height="78" as="geometry" />
        </mxCell>
        <mxCell id="gEQz_BnVj_psmA9T3n9M-71" value="" style="outlineConnect=0;fontColor=#ffffff;fillColor=#1ba1e2;strokeColor=#006EAF;dashed=0;verticalLabelPosition=bottom;verticalAlign=top;align=center;html=1;fontSize=12;fontStyle=0;aspect=fixed;pointerEvents=1;shape=mxgraph.aws4.glue_data_catalog;" vertex="1" parent="1">
          <mxGeometry x="1480" y="310" width="72" height="78" as="geometry" />
        </mxCell>
        <mxCell id="gEQz_BnVj_psmA9T3n9M-72" value="" style="group" vertex="1" connectable="0" parent="1">
          <mxGeometry x="150" y="430" width="840" height="230" as="geometry" />
        </mxCell>
        <mxCell id="gEQz_BnVj_psmA9T3n9M-19" value="机构管理" style="rounded=1;whiteSpace=wrap;html=1;fontSize=14;fillColor=none;strokeColor=#006EAF;fontColor=#1BA1E2;" vertex="1" parent="gEQz_BnVj_psmA9T3n9M-72">
          <mxGeometry width="144.82758620689654" height="30" as="geometry" />
        </mxCell>
        <mxCell id="gEQz_BnVj_psmA9T3n9M-20" value="角色管理" style="rounded=1;whiteSpace=wrap;html=1;fontSize=14;fillColor=none;strokeColor=#006EAF;fontColor=#1BA1E2;" vertex="1" parent="gEQz_BnVj_psmA9T3n9M-72">
          <mxGeometry y="60" width="144.82758620689654" height="30" as="geometry" />
        </mxCell>
        <mxCell id="gEQz_BnVj_psmA9T3n9M-21" value="日志管理" style="rounded=1;whiteSpace=wrap;html=1;fontSize=14;fillColor=none;strokeColor=#006EAF;fontColor=#1BA1E2;" vertex="1" parent="gEQz_BnVj_psmA9T3n9M-72">
          <mxGeometry y="120" width="144.82758620689654" height="30" as="geometry" />
        </mxCell>
        <mxCell id="gEQz_BnVj_psmA9T3n9M-22" value="参数管理" style="rounded=1;whiteSpace=wrap;html=1;fontSize=14;fillColor=none;strokeColor=#006EAF;fontColor=#1BA1E2;" vertex="1" parent="gEQz_BnVj_psmA9T3n9M-72">
          <mxGeometry x="217.24137931034483" y="120" width="144.82758620689654" height="30" as="geometry" />
        </mxCell>
        <mxCell id="gEQz_BnVj_psmA9T3n9M-23" value="用户管理" style="rounded=1;whiteSpace=wrap;html=1;fontSize=14;fillColor=none;strokeColor=#006EAF;fontColor=#1BA1E2;" vertex="1" parent="gEQz_BnVj_psmA9T3n9M-72">
          <mxGeometry x="217.24137931034483" width="144.82758620689654" height="30" as="geometry" />
        </mxCell>
        <mxCell id="gEQz_BnVj_psmA9T3n9M-24" value="权限管理" style="rounded=1;whiteSpace=wrap;html=1;fontSize=14;fillColor=none;strokeColor=#006EAF;fontColor=#1BA1E2;" vertex="1" parent="gEQz_BnVj_psmA9T3n9M-72">
          <mxGeometry x="217.24137931034483" y="60" width="144.82758620689654" height="30" as="geometry" />
        </mxCell>
        <mxCell id="gEQz_BnVj_psmA9T3n9M-25" value="查询统计" style="rounded=1;whiteSpace=wrap;html=1;fontSize=14;fillColor=none;strokeColor=#006EAF;fontColor=#1BA1E2;" vertex="1" parent="gEQz_BnVj_psmA9T3n9M-72">
          <mxGeometry x="477.93103448275866" y="100" width="144.82758620689654" height="30" as="geometry" />
        </mxCell>
        <mxCell id="gEQz_BnVj_psmA9T3n9M-26" value="有效期管理" style="rounded=1;whiteSpace=wrap;html=1;fontSize=14;fillColor=none;strokeColor=#006EAF;fontColor=#1BA1E2;" vertex="1" parent="gEQz_BnVj_psmA9T3n9M-72">
          <mxGeometry x="477.93103448275866" y="150" width="144.82758620689654" height="30" as="geometry" />
        </mxCell>
        <mxCell id="gEQz_BnVj_psmA9T3n9M-27" value="存证管理" style="rounded=1;whiteSpace=wrap;html=1;fontSize=14;fillColor=none;strokeColor=#006EAF;fontColor=#1BA1E2;" vertex="1" parent="gEQz_BnVj_psmA9T3n9M-72">
          <mxGeometry x="477.93103448275866" y="200" width="144.82758620689654" height="30" as="geometry" />
        </mxCell>
        <mxCell id="gEQz_BnVj_psmA9T3n9M-28" value="查证管理" style="rounded=1;whiteSpace=wrap;html=1;fontSize=14;fillColor=none;strokeColor=#006EAF;fontColor=#1BA1E2;" vertex="1" parent="gEQz_BnVj_psmA9T3n9M-72">
          <mxGeometry x="695.1724137931035" y="200" width="144.82758620689654" height="30" as="geometry" />
        </mxCell>
        <mxCell id="gEQz_BnVj_psmA9T3n9M-29" value="黑/灰名单模板" style="rounded=1;whiteSpace=wrap;html=1;fontSize=14;fillColor=none;strokeColor=#006EAF;fontColor=#1BA1E2;" vertex="1" parent="gEQz_BnVj_psmA9T3n9M-72">
          <mxGeometry x="695.1724137931035" y="100" width="144.82758620689654" height="30" as="geometry" />
        </mxCell>
        <mxCell id="gEQz_BnVj_psmA9T3n9M-30" value="标签画像" style="rounded=1;whiteSpace=wrap;html=1;fontSize=14;fillColor=none;strokeColor=#006EAF;fontColor=#1BA1E2;" vertex="1" parent="gEQz_BnVj_psmA9T3n9M-72">
          <mxGeometry x="695.1724137931035" y="150" width="144.82758620689654" height="30" as="geometry" />
        </mxCell>
        <mxCell id="gEQz_BnVj_psmA9T3n9M-31" value="审批管理" style="rounded=1;whiteSpace=wrap;html=1;fontSize=14;fillColor=none;strokeColor=#006EAF;fontColor=#1BA1E2;" vertex="1" parent="gEQz_BnVj_psmA9T3n9M-72">
          <mxGeometry x="477.93103448275866" width="144.82758620689654" height="30" as="geometry" />
        </mxCell>
        <mxCell id="gEQz_BnVj_psmA9T3n9M-32" value="首页看板" style="rounded=1;whiteSpace=wrap;html=1;fontSize=14;fillColor=none;strokeColor=#006EAF;fontColor=#1BA1E2;" vertex="1" parent="gEQz_BnVj_psmA9T3n9M-72">
          <mxGeometry x="477.93103448275866" y="50" width="144.82758620689654" height="30" as="geometry" />
        </mxCell>
        <mxCell id="gEQz_BnVj_psmA9T3n9M-33" value="标签管理" style="rounded=1;whiteSpace=wrap;html=1;fontSize=14;fillColor=none;strokeColor=#006EAF;fontColor=#1BA1E2;" vertex="1" parent="gEQz_BnVj_psmA9T3n9M-72">
          <mxGeometry x="695.1724137931035" width="144.82758620689654" height="30" as="geometry" />
        </mxCell>
        <mxCell id="gEQz_BnVj_psmA9T3n9M-34" value="待办事项" style="rounded=1;whiteSpace=wrap;html=1;fontSize=14;fillColor=none;strokeColor=#006EAF;fontColor=#1BA1E2;" vertex="1" parent="gEQz_BnVj_psmA9T3n9M-72">
          <mxGeometry x="695.1724137931035" y="50" width="144.82758620689654" height="30" as="geometry" />
        </mxCell>
        <mxCell id="gEQz_BnVj_psmA9T3n9M-44" value="接口管理" style="rounded=1;whiteSpace=wrap;html=1;fontSize=14;fillColor=none;strokeColor=#006EAF;fontColor=#1BA1E2;" vertex="1" parent="gEQz_BnVj_psmA9T3n9M-72">
          <mxGeometry y="180" width="144.82758620689654" height="30" as="geometry" />
        </mxCell>
        <mxCell id="gEQz_BnVj_psmA9T3n9M-46" value="安全管理" style="rounded=1;whiteSpace=wrap;html=1;fontSize=14;fillColor=none;strokeColor=#006EAF;fontColor=#1BA1E2;" vertex="1" parent="gEQz_BnVj_psmA9T3n9M-72">
          <mxGeometry x="217.24137931034483" y="180" width="144.82758620689654" height="30" as="geometry" />
        </mxCell>
        <mxCell id="gEQz_BnVj_psmA9T3n9M-74" value="" style="pointerEvents=1;shadow=0;dashed=0;html=1;labelPosition=center;verticalLabelPosition=bottom;verticalAlign=top;align=center;shape=mxgraph.mscae.system_center.software_update_point;fontSize=14;" vertex="1" parent="1">
          <mxGeometry x="242.5" y="361" width="46.51" height="40" as="geometry" />
        </mxCell>
        <mxCell id="gEQz_BnVj_psmA9T3n9M-75" value="" style="pointerEvents=1;shadow=0;dashed=0;html=1;labelPosition=center;verticalLabelPosition=bottom;verticalAlign=top;align=center;shape=mxgraph.mscae.system_center.admin_console;fontSize=14;" vertex="1" parent="1">
          <mxGeometry x="702.25" y="366" width="50" height="36" as="geometry" />
        </mxCell>
        <mxCell id="gEQz_BnVj_psmA9T3n9M-50" value="" style="endArrow=classic;html=1;entryX=0.182;entryY=-0.01;entryDx=0;entryDy=0;entryPerimeter=0;" edge="1" parent="1">
          <mxGeometry x="630.5" y="296" width="50" height="50" as="geometry">
            <mxPoint x="820.0000000000001" y="296" as="sourcePoint" />
            <mxPoint x="820.12" y="331.8" as="targetPoint" />
          </mxGeometry>
        </mxCell>
        <mxCell id="gEQz_BnVj_psmA9T3n9M-51" value="" style="endArrow=classic;html=1;entryX=0.182;entryY=-0.01;entryDx=0;entryDy=0;entryPerimeter=0;" edge="1" parent="1">
          <mxGeometry x="310" y="296" width="50" height="50" as="geometry">
            <mxPoint x="310" y="296" as="sourcePoint" />
            <mxPoint x="310.1199999999999" y="331.8" as="targetPoint" />
          </mxGeometry>
        </mxCell>
        <mxCell id="gEQz_BnVj_psmA9T3n9M-80" value="" style="endArrow=classic;html=1;entryX=0.182;entryY=-0.01;entryDx=0;entryDy=0;entryPerimeter=0;" edge="1" parent="1">
          <mxGeometry x="519.5" y="297.81" width="50" height="50" as="geometry">
            <mxPoint x="569.5" y="297.81" as="sourcePoint" />
            <mxPoint x="569.6199999999999" y="333.61" as="targetPoint" />
          </mxGeometry>
        </mxCell>
      </root>
    </mxGraphModel>
  </diagram>
</mxfile>
